<svg width="1083" height="686" viewBox="0 0 1083 686" fill="none" xmlns="http://www.w3.org/2000/svg">
<g filter="url(#filter0_d_149_1754)">
<path d="M16 21C16 15.4771 20.4772 11 26 11H1057C1062.52 11 1067 15.4772 1067 21V338V655C1067 660.523 1062.52 665 1057 665H26C20.4772 665 16 660.523 16 655V21Z" fill="white"/>
<path d="M17 21C17 16.0294 21.0294 12 26 12H1057C1061.97 12 1066 16.0294 1066 21V338V655C1066 659.971 1061.97 664 1057 664H26C21.0294 664 17 659.971 17 655V21Z" stroke="#E1E1E1" stroke-width="2"/>
</g>
<defs>
<filter id="filter0_d_149_1754" x="0" y="0" width="1083" height="686" filterUnits="userSpaceOnUse" color-interpolation-filters="sRGB">
<feFlood flood-opacity="0" result="BackgroundImageFix"/>
<feColorMatrix in="SourceAlpha" type="matrix" values="0 0 0 0 0 0 0 0 0 0 0 0 0 0 0 0 0 0 127 0" result="hardAlpha"/>
<feOffset dy="5"/>
<feGaussianBlur stdDeviation="8"/>
<feColorMatrix type="matrix" values="0 0 0 0 0.0323264 0 0 0 0 0.0598209 0 0 0 0 0.204167 0 0 0 0.06 0"/>
<feBlend mode="normal" in2="BackgroundImageFix" result="effect1_dropShadow_149_1754"/>
<feBlend mode="normal" in="SourceGraphic" in2="effect1_dropShadow_149_1754" result="shape"/>
</filter>
</defs>
</svg>
